<svg xmlns="http://www.w3.org/2000/svg" width="1800" height="1800" viewBox="0 0 1800 1800">
  <defs>
    <radialGradient id="land" cx="50%" cy="48%" r="70%">
      <stop offset="0%" stop-color="#3d4635"/>
      <stop offset="45%" stop-color="#283128"/>
      <stop offset="100%" stop-color="#111717"/>
    </radialGradient>
    <linearGradient id="water" x1="0%" y1="100%" x2="100%" y2="0%">
      <stop offset="0%" stop-color="#0a1d24"/>
      <stop offset="100%" stop-color="#153542"/>
    </linearGradient>
    <filter id="softShadow" x="-20%" y="-20%" width="140%" height="140%">
      <feDropShadow dx="0" dy="8" stdDeviation="10" flood-color="#000000" flood-opacity="0.45"/>
    </filter>
    <style>
      .title { font: 700 48px Georgia, serif; fill: #e3d6bd; letter-spacing: 0; }
      .subtitle { font: 400 24px Arial, sans-serif; fill: #b9aa91; letter-spacing: 0; }
      .label { font: 700 24px Arial, sans-serif; fill: #f0dfbf; letter-spacing: 0; }
      .small { font: 400 18px Arial, sans-serif; fill: #d2c2a6; letter-spacing: 0; }
      .tiny { font: 400 15px Arial, sans-serif; fill: #b7a98e; letter-spacing: 0; }
      .route { fill: none; stroke: #b79b64; stroke-width: 22; stroke-linecap: round; stroke-linejoin: round; opacity: 0.78; }
      .riskRoute { fill: none; stroke: #8f4f42; stroke-width: 15; stroke-linecap: round; stroke-linejoin: round; stroke-dasharray: 26 18; opacity: 0.88; }
      .river { fill: none; stroke: #24566c; stroke-width: 32; stroke-linecap: round; stroke-linejoin: round; opacity: 0.9; }
      .ridge { fill: none; stroke: #687060; stroke-width: 42; stroke-linecap: round; stroke-linejoin: round; opacity: 0.82; }
      .border { fill: none; stroke: #d7c191; stroke-width: 4; opacity: 0.7; }
      .poi { stroke: #1b1512; stroke-width: 5; filter: url(#softShadow); }
      .noteBox { fill: #171b19; stroke: #6b5a3a; stroke-width: 2; opacity: 0.94; }
    </style>
  </defs>

  <rect width="1800" height="1800" fill="#090d0d"/>
  <path d="M230 210 C420 70 680 105 855 145 C1060 70 1330 125 1505 290 C1675 450 1710 720 1645 930 C1745 1120 1660 1390 1460 1545 C1250 1710 985 1660 820 1595 C610 1715 360 1620 220 1430 C80 1240 140 1000 195 850 C95 640 70 360 230 210 Z" fill="url(#land)" stroke="#55482f" stroke-width="7"/>

  <path d="M160 1370 C330 1290 440 1305 560 1370 C710 1450 820 1515 990 1490 C1190 1460 1300 1340 1475 1395 C1410 1520 1240 1625 1040 1640 C900 1650 805 1585 690 1560 C520 1525 370 1560 220 1430 Z" fill="url(#water)" opacity="0.92"/>

  <path class="river" d="M1040 210 C1010 340 940 440 960 560 C980 700 1110 745 1080 890 C1055 1020 910 1065 885 1200 C865 1310 920 1395 990 1490"/>

  <path class="ridge" d="M1325 300 C1255 455 1245 610 1335 750 C1415 875 1390 1045 1260 1180 C1190 1255 1125 1320 1115 1445"/>
  <path class="ridge" d="M355 360 C510 430 595 545 570 690 C545 825 420 900 410 1040 C400 1160 505 1265 560 1370"/>

  <path class="route" d="M355 1325 C460 1185 620 1060 760 960 C890 865 1010 760 1155 610 C1250 510 1350 405 1460 330"/>
  <path class="route" d="M300 720 C470 740 620 790 760 870 C900 950 1030 965 1190 900 C1340 840 1475 845 1600 900"/>
  <path class="route" d="M505 360 C610 500 710 645 805 780 C905 925 1005 1060 1120 1195 C1210 1300 1315 1400 1465 1485"/>

  <path class="riskRoute" d="M425 1180 C560 1080 685 975 785 850 C880 735 915 610 900 450"/>
  <path class="riskRoute" d="M1260 1180 C1120 1085 1005 985 930 860 C845 720 725 640 570 620"/>
  <path class="riskRoute" d="M705 1265 C790 1135 815 1030 785 925 C750 805 665 735 555 680"/>

  <ellipse cx="900" cy="890" rx="170" ry="135" fill="#4b433b" class="poi"/>
  <path d="M790 830 L855 770 L940 800 L1010 760 L1050 850 L990 930 L1030 1010 L925 1035 L850 990 L760 1015 L735 915 Z" fill="#736a5e" stroke="#241f1b" stroke-width="5"/>
  <circle cx="900" cy="890" r="42" fill="#365f63" stroke="#101919" stroke-width="5"/>
  <text x="900" y="1090" text-anchor="middle" class="label">RUINAS DO CATALYST</text>
  <text x="900" y="1120" text-anchor="middle" class="small">hotspot PvP / boss / recurso raro</text>

  <path d="M520 190 C660 160 820 180 930 275 C890 390 800 480 650 500 C515 520 400 455 335 345 C370 270 430 220 520 190 Z" fill="#1f3a2a" class="poi"/>
  <g fill="#0f2118" stroke="#243d2d" stroke-width="3">
    <circle cx="500" cy="300" r="34"/><circle cx="590" cy="260" r="42"/><circle cx="690" cy="330" r="38"/>
    <circle cx="790" cy="280" r="36"/><circle cx="610" cy="410" r="45"/><circle cx="760" cy="430" r="35"/>
  </g>
  <text x="635" y="555" text-anchor="middle" class="label">FLORESTA MALDITA</text>
  <text x="635" y="585" text-anchor="middle" class="small">emboscada / visibilidade controlada</text>

  <path d="M1280 250 C1450 280 1585 430 1605 605 C1515 665 1395 670 1285 625 C1190 585 1145 500 1170 405 C1190 330 1230 285 1280 250 Z" fill="#4b4b43" class="poi"/>
  <path d="M1240 560 L1310 390 L1380 560 M1355 600 L1430 430 L1515 585" stroke="#8c8066" stroke-width="22" stroke-linecap="round" fill="none"/>
  <text x="1395" y="715" text-anchor="middle" class="label">CRISTA DOS MINERIOS</text>
  <text x="1395" y="745" text-anchor="middle" class="small">altura / minério / risco de queda</text>

  <path d="M210 805 C315 690 475 655 610 725 C650 860 610 990 500 1075 C360 1185 200 1120 135 980 C120 910 145 850 210 805 Z" fill="#26392f" class="poi"/>
  <path d="M205 960 C305 930 390 955 480 900 C540 865 565 805 590 750" stroke="#3f6858" stroke-width="24" fill="none" opacity="0.8"/>
  <text x="365" y="1225" text-anchor="middle" class="label">PANTANO DAS ERVAS</text>
  <text x="365" y="1255" text-anchor="middle" class="small">rotas estreitas / recurso noturno</text>

  <path d="M455 1365 C590 1325 720 1395 805 1505 C710 1610 535 1610 395 1545 C315 1505 275 1450 300 1395 C340 1375 395 1370 455 1365 Z" fill="#35404a" class="poi"/>
  <path d="M395 1480 C480 1435 580 1445 690 1510" stroke="#9d8b6c" stroke-width="20" stroke-linecap="round" fill="none"/>
  <text x="555" y="1660" text-anchor="middle" class="label">COSTA DOS NAUFRAGIOS</text>
  <text x="555" y="1690" text-anchor="middle" class="small">extração / fuga / conflito por loot</text>

  <path d="M1120 1265 C1245 1190 1435 1220 1535 1335 C1500 1445 1380 1515 1235 1490 C1130 1470 1065 1390 1075 1315 Z" fill="#3b322c" class="poi"/>
  <path d="M1170 1360 L1265 1285 L1350 1375 L1455 1325" stroke="#7f5f4a" stroke-width="18" stroke-linecap="round" fill="none"/>
  <text x="1320" y="1585" text-anchor="middle" class="label">FORTALEZA QUEBRADA</text>
  <text x="1320" y="1615" text-anchor="middle" class="small">gargalos / muralhas / defesa temporária</text>

  <circle cx="350" cy="1325" r="28" fill="#d1c08f" stroke="#19140f" stroke-width="5"/>
  <text x="350" y="1290" text-anchor="middle" class="small">Spawn A</text>
  <circle cx="1460" cy="330" r="28" fill="#d1c08f" stroke="#19140f" stroke-width="5"/>
  <text x="1460" y="295" text-anchor="middle" class="small">Spawn B</text>

  <rect x="80" y="70" width="700" height="130" rx="0" class="noteBox"/>
  <text x="110" y="125" class="title">SpellRise - Planta 2D Dark Fantasy</text>
  <text x="110" y="165" class="subtitle">Vertical slice 2 km x 2 km: rotas, POIs, risco PvP e biomas</text>

  <rect x="1140" y="80" width="580" height="250" rx="0" class="noteBox"/>
  <text x="1175" y="130" class="label">Legenda</text>
  <line x1="1175" y1="170" x2="1295" y2="170" class="route"/>
  <text x="1325" y="178" class="small">rota principal</text>
  <line x1="1175" y1="215" x2="1295" y2="215" class="riskRoute"/>
  <text x="1325" y="223" class="small">atalho perigoso</text>
  <line x1="1175" y1="260" x2="1295" y2="260" class="river"/>
  <text x="1325" y="268" class="small">rio/vale navegacional</text>
  <circle cx="1205" cy="300" r="18" fill="#d1c08f" stroke="#19140f" stroke-width="4"/>
  <text x="1325" y="308" class="small">spawn / entrada de teste</text>

  <rect x="90" y="1495" width="610" height="190" rx="0" class="noteBox"/>
  <text x="125" y="1545" class="label">Intenção de Design</text>
  <text x="125" y="1585" class="small">- Centro atrai conflito, mas nao prende jogador.</text>
  <text x="125" y="1620" class="small">- Rotas abertas favorecem skill-based/free target.</text>
  <text x="125" y="1655" class="small">- Atalhos criam emboscada com risco real.</text>

  <rect x="1060" y="1525" width="640" height="120" rx="0" class="noteBox"/>
  <text x="1095" y="1575" class="label">Proximo passo</text>
  <text x="1095" y="1615" class="small">Converter esta planta em terrain blockout com relevo organico.</text>

  <path class="border" d="M230 210 C420 70 680 105 855 145 C1060 70 1330 125 1505 290 C1675 450 1710 720 1645 930 C1745 1120 1660 1390 1460 1545 C1250 1710 985 1660 820 1595 C610 1715 360 1620 220 1430 C80 1240 140 1000 195 850 C95 640 70 360 230 210 Z"/>
</svg>
