<svg xmlns="http://www.w3.org/2000/svg" width="2600" height="1900" viewBox="0 0 2600 1900">
  <defs>
    <radialGradient id="ocean" cx="48%" cy="44%" r="84%">
      <stop offset="0%" stop-color="#21495a"/>
      <stop offset="52%" stop-color="#102d3b"/>
      <stop offset="100%" stop-color="#06131b"/>
    </radialGradient>
    <linearGradient id="shelf" x1="0%" y1="0%" x2="100%" y2="100%">
      <stop offset="0%" stop-color="#2b6574"/>
      <stop offset="100%" stop-color="#123440"/>
    </linearGradient>
    <linearGradient id="elarionLand" x1="14%" y1="4%" x2="86%" y2="100%">
      <stop offset="0%" stop-color="#596a4b"/>
      <stop offset="23%" stop-color="#2e4a31"/>
      <stop offset="47%" stop-color="#4f5738"/>
      <stop offset="67%" stop-color="#7a6844"/>
      <stop offset="83%" stop-color="#4d3d32"/>
      <stop offset="100%" stop-color="#202725"/>
    </linearGradient>
    <linearGradient id="snowIsland" x1="0%" y1="0%" x2="100%" y2="100%">
      <stop offset="0%" stop-color="#d7e1de"/>
      <stop offset="55%" stop-color="#81979a"/>
      <stop offset="100%" stop-color="#374c55"/>
    </linearGradient>
    <linearGradient id="desertIsland" x1="0%" y1="0%" x2="100%" y2="100%">
      <stop offset="0%" stop-color="#b2935e"/>
      <stop offset="56%" stop-color="#7b5833"/>
      <stop offset="100%" stop-color="#39261d"/>
    </linearGradient>
    <linearGradient id="jungleIsland" x1="0%" y1="0%" x2="100%" y2="100%">
      <stop offset="0%" stop-color="#437242"/>
      <stop offset="58%" stop-color="#183d2c"/>
      <stop offset="100%" stop-color="#10201a"/>
    </linearGradient>
    <linearGradient id="ashIsland" x1="0%" y1="0%" x2="100%" y2="100%">
      <stop offset="0%" stop-color="#766a5f"/>
      <stop offset="50%" stop-color="#4d3730"/>
      <stop offset="100%" stop-color="#1e1716"/>
    </linearGradient>
    <filter id="landShadow" x="-15%" y="-15%" width="130%" height="130%">
      <feDropShadow dx="0" dy="12" stdDeviation="12" flood-color="#000000" flood-opacity="0.5"/>
    </filter>
    <filter id="glow" x="-60%" y="-60%" width="220%" height="220%">
      <feGaussianBlur stdDeviation="10" result="blur"/>
      <feMerge>
        <feMergeNode in="blur"/>
        <feMergeNode in="SourceGraphic"/>
      </feMerge>
    </filter>
    <style>
      .title { font: 700 48px Georgia, serif; fill: #eadcc2; letter-spacing: 0; }
      .subtitle { font: 400 23px Arial, sans-serif; fill: #cdbf9f; letter-spacing: 0; }
      .region { font: 700 23px Arial, sans-serif; fill: #f0dfbf; letter-spacing: 0; }
      .small { font: 400 17px Arial, sans-serif; fill: #d7c8aa; letter-spacing: 0; }
      .tiny { font: 400 14px Arial, sans-serif; fill: #c1b499; letter-spacing: 0; }
      .land { stroke: #1c1712; stroke-width: 7; filter: url(#landShadow); }
      .coast { fill: none; stroke: #d1b979; stroke-width: 4; opacity: 0.58; }
      .shoal { fill: none; stroke: #4e91a0; stroke-width: 28; opacity: 0.26; }
      .mountain { fill: none; stroke: #d6d0bd; stroke-width: 8; stroke-linecap: round; stroke-linejoin: round; opacity: 0.72; }
      .mountainShadow { fill: none; stroke: #30362d; stroke-width: 30; stroke-linecap: round; stroke-linejoin: round; opacity: 0.68; }
      .river { fill: none; stroke: #2d6f85; stroke-width: 15; stroke-linecap: round; stroke-linejoin: round; opacity: 0.9; }
      .forest { fill: #153a27; opacity: 0.42; }
      .swamp { fill: #243a2c; opacity: 0.58; }
      .desert { fill: #a88750; opacity: 0.28; }
      .ash { fill: #2a201f; opacity: 0.42; }
      .snow { fill: #d8e3df; opacity: 0.4; }
      .collapse { fill: #5b1f5f; opacity: 0.42; stroke: #d19be8; stroke-width: 3; filter: url(#glow); }
      .liminalLine { fill: none; stroke: #9ad7de; stroke-width: 5; stroke-linecap: round; stroke-dasharray: 15 12; opacity: 0.65; }
      .road { fill: none; stroke: #b79b64; stroke-width: 8; stroke-linecap: round; stroke-linejoin: round; opacity: 0.58; }
      .city { fill: #e6d4a5; stroke: #18120d; stroke-width: 5; }
      .portal { fill: #42a3a8; stroke: #071417; stroke-width: 4; }
      .blocked { fill: none; stroke: #e0c474; stroke-width: 4; stroke-dasharray: 18 12; opacity: 0.7; }
      .note { fill: #141917; stroke: #6e6042; stroke-width: 2; opacity: 0.96; }
    </style>
  </defs>

  <rect width="2600" height="1900" fill="url(#ocean)"/>

  <path class="shoal" d="M705 270 C830 145 1035 150 1145 205 C1285 105 1510 145 1605 295 C1795 290 1960 450 1935 645 C2095 790 2075 1020 1920 1135 C1985 1335 1810 1550 1585 1565 C1455 1725 1205 1755 1045 1615 C870 1685 640 1585 595 1365 C400 1305 305 1080 395 890 C250 700 350 460 565 425 C575 350 625 300 705 270 Z"/>
  <path class="shoal" d="M720 110 C850 35 1040 55 1135 150 C1215 230 1160 365 1010 400 C860 435 655 355 615 230 C598 175 640 135 720 110 Z"/>
  <path class="shoal" d="M1840 210 C1980 120 2185 145 2295 295 C2410 455 2325 660 2130 720 C1950 775 1770 670 1738 495 C1715 365 1755 260 1840 210 Z"/>
  <path class="shoal" d="M245 1125 C380 1015 575 1055 690 1200 C820 1365 735 1585 540 1660 C365 1730 160 1635 110 1450 C75 1300 120 1210 245 1125 Z"/>
  <path class="shoal" d="M1855 1300 C2015 1200 2250 1265 2350 1440 C2440 1605 2315 1775 2110 1790 C1925 1805 1755 1675 1738 1500 C1725 1410 1765 1348 1855 1300 Z"/>

  <path id="elarion" class="land" fill="url(#elarionLand)" d="M705 270
    C830 145 1035 150 1145 205
    C1285 105 1510 145 1605 295
    C1795 290 1960 450 1935 645
    C2095 790 2075 1020 1920 1135
    C1985 1335 1810 1550 1585 1565
    C1455 1725 1205 1755 1045 1615
    C870 1685 640 1585 595 1365
    C400 1305 305 1080 395 890
    C250 700 350 460 565 425
    C575 350 625 300 705 270 Z"/>

  <path class="coast" d="M705 270 C830 145 1035 150 1145 205 C1285 105 1510 145 1605 295 C1795 290 1960 450 1935 645 C2095 790 2075 1020 1920 1135 C1985 1335 1810 1550 1585 1565 C1455 1725 1205 1755 1045 1615 C870 1685 640 1585 595 1365 C400 1305 305 1080 395 890 C250 700 350 460 565 425 C575 350 625 300 705 270 Z"/>

  <path class="forest" d="M610 330 C735 235 930 245 1055 345 C1105 480 1010 630 835 670 C675 705 525 625 475 500 C490 420 535 365 610 330 Z"/>
  <path class="swamp" d="M415 905 C545 795 745 825 850 965 C945 1095 865 1285 705 1335 C520 1395 350 1230 360 1060 C365 995 385 945 415 905 Z"/>
  <path class="desert" d="M1585 370 C1770 390 1905 540 1885 725 C1800 820 1620 810 1515 710 C1400 600 1440 420 1585 370 Z"/>
  <path class="ash" d="M1390 1155 C1585 1040 1815 1135 1865 1325 C1815 1490 1605 1570 1455 1475 C1315 1385 1275 1260 1390 1155 Z"/>
  <path class="snow" d="M1030 220 C1170 150 1395 160 1530 300 C1470 390 1350 435 1215 405 C1110 380 1040 315 1030 220 Z"/>

  <path class="mountainShadow" d="M820 310 C935 445 1025 580 1065 740"/>
  <path class="mountain" d="M805 300 C925 435 1015 575 1055 730"/>
  <path class="mountainShadow" d="M1585 360 C1490 530 1485 705 1580 890"/>
  <path class="mountain" d="M1570 350 C1480 525 1475 700 1565 885"/>
  <path class="mountainShadow" d="M645 1180 C785 1115 930 1165 1035 1300"/>
  <path class="mountain" d="M630 1170 C780 1108 920 1155 1020 1285"/>
  <path class="mountainShadow" d="M1305 1265 C1465 1160 1630 1145 1795 1225"/>
  <path class="mountain" d="M1290 1255 C1450 1150 1615 1135 1780 1215"/>

  <path class="river" d="M1145 205 C1125 360 1165 510 1240 660 C1320 830 1270 990 1190 1125 C1115 1255 1085 1425 1110 1600"/>
  <path class="river" d="M1590 545 C1450 665 1325 745 1195 835 C1050 935 900 940 750 910 C625 885 510 930 395 1010"/>
  <path class="river" d="M775 355 C805 500 780 615 690 735 C610 840 560 975 595 1135"/>

  <path class="collapse" d="M1035 730 C1135 625 1310 630 1410 735 C1520 855 1460 1050 1325 1120 C1180 1195 990 1135 940 970 C915 880 955 805 1035 730 Z"/>
  <path class="liminalLine" d="M1120 760 C1165 825 1240 840 1305 805 C1360 775 1405 815 1420 895 C1435 985 1365 1045 1265 1045 C1165 1040 1080 990 1045 910 C1015 840 1050 790 1120 760 Z"/>
  <circle cx="1215" cy="910" r="44" fill="#9bd7de" opacity="0.35" filter="url(#glow)"/>

  <path class="road" d="M780 500 C950 620 1055 770 1090 930 C1120 1090 990 1245 750 1320"/>
  <path class="road" d="M1625 530 C1500 650 1415 795 1390 950 C1365 1105 1455 1220 1620 1290"/>
  <path class="road" d="M750 1320 C930 1220 1085 1125 1220 1015 C1390 875 1515 705 1625 530"/>
  <path class="road" d="M780 500 C960 570 1110 660 1245 805 C1390 960 1515 1140 1620 1290"/>

  <circle class="city" cx="780" cy="500" r="30"/>
  <circle class="city" cx="1625" cy="530" r="30"/>
  <circle class="city" cx="750" cy="1320" r="30"/>
  <circle class="city" cx="1620" cy="1290" r="30"/>

  <text x="780" y="445" text-anchor="middle" class="region">Refúgio Noroeste</text>
  <text x="780" y="470" text-anchor="middle" class="small">primeira região jogável</text>
  <text x="1625" y="475" text-anchor="middle" class="region">Refúgio das Alturas</text>
  <text x="750" y="1385" text-anchor="middle" class="region">Refúgio do Brejo</text>
  <text x="1620" y="1355" text-anchor="middle" class="region">Refúgio das Cinzas</text>

  <circle class="portal" cx="1105" cy="780" r="18"/>
  <circle class="portal" cx="1425" cy="825" r="18"/>
  <circle class="portal" cx="1065" cy="1155" r="18"/>
  <circle class="portal" cx="1390" cy="1160" r="18"/>

  <path class="blocked" d="M995 280 C1215 175 1500 230 1655 415"/>
  <path class="blocked" d="M470 900 C620 790 815 830 920 975"/>
  <path class="blocked" d="M1390 1160 C1570 1055 1785 1130 1880 1310"/>

  <path class="land" fill="url(#snowIsland)" d="M720 110 C850 35 1040 55 1135 150 C1215 230 1160 365 1010 400 C860 435 655 355 615 230 C598 175 640 135 720 110 Z"/>
  <path class="mountainShadow" d="M750 180 C850 225 950 220 1050 270"/>
  <path class="mountain" d="M740 170 C850 215 950 210 1045 260"/>
  <circle class="portal" cx="910" cy="250" r="18"/>
  <text x="870" y="80" text-anchor="middle" class="region">Ilha Boreal</text>
  <text x="870" y="108" text-anchor="middle" class="small">aurora morta / gelo liminar</text>

  <path class="land" fill="url(#desertIsland)" d="M1840 210 C1980 120 2185 145 2295 295 C2410 455 2325 660 2130 720 C1950 775 1770 670 1738 495 C1715 365 1755 260 1840 210 Z"/>
  <path class="river" d="M1880 295 C1960 390 2035 495 2130 650"/>
  <circle class="portal" cx="2025" cy="470" r="18"/>
  <text x="2030" y="165" text-anchor="middle" class="region">Ilha de Vidro</text>
  <text x="2030" y="193" text-anchor="middle" class="small">deserto cristalizado / miragens</text>

  <path class="land" fill="url(#jungleIsland)" d="M245 1125 C380 1015 575 1055 690 1200 C820 1365 735 1585 540 1660 C365 1730 160 1635 110 1450 C75 1300 120 1210 245 1125 Z"/>
  <path class="swamp" d="M260 1210 C420 1125 600 1200 645 1375 C575 1515 390 1565 250 1470 C155 1405 160 1280 260 1210 Z"/>
  <circle class="portal" cx="405" cy="1390" r="18"/>
  <text x="400" y="1695" text-anchor="middle" class="region">Ilha Verde-Negra</text>
  <text x="400" y="1723" text-anchor="middle" class="small">serpes de raiz / selva antiga</text>

  <path class="land" fill="url(#ashIsland)" d="M1855 1300 C2015 1200 2250 1265 2350 1440 C2440 1605 2315 1775 2110 1790 C1925 1805 1755 1675 1738 1500 C1725 1410 1765 1348 1855 1300 Z"/>
  <path class="collapse" d="M1995 1400 C2095 1360 2195 1420 2210 1530 C2160 1620 2030 1645 1945 1570 C1885 1515 1910 1430 1995 1400 Z"/>
  <circle class="portal" cx="2060" cy="1515" r="18"/>
  <text x="2070" y="1830" text-anchor="middle" class="region">Ilha das Cinzas</text>
  <text x="2070" y="1858" text-anchor="middle" class="small">dragões de cinza / metal raro</text>

  <path class="seaRoute" d="M910 250 C650 450 465 720 430 1010 C395 1290 540 1510 750 1320" fill="none" stroke="#82b8c5" stroke-width="7" stroke-dasharray="22 18" opacity="0.62"/>
  <path class="seaRoute" d="M2025 470 C1860 655 1740 875 1745 1080 C1750 1265 1850 1420 2060 1515" fill="none" stroke="#82b8c5" stroke-width="7" stroke-dasharray="22 18" opacity="0.62"/>

  <rect x="70" y="60" width="710" height="150" class="note"/>
  <text x="105" y="115" class="title">Elarion - Conceito Satélite</text>
  <text x="105" y="155" class="subtitle">Costa, relevo, biomas, ilhas e feridas da Ruptura do Limiar</text>

  <rect x="1930" y="70" width="590" height="270" class="note"/>
  <text x="1965" y="120" class="region">Leitura do mundo</text>
  <text x="1965" y="160" class="small">Verde escuro: florestas e fronteiras.</text>
  <text x="1965" y="195" class="small">Roxo/azul: Zonas de Colapso.</text>
  <text x="1965" y="230" class="small">Linhas claras: serras e rotas naturais.</text>
  <text x="1965" y="265" class="small">Contornos tracejados: áreas bloqueadas.</text>
  <text x="1965" y="300" class="small">Mar largo: navegação futura, não borda falsa.</text>

  <rect x="80" y="1555" width="725" height="220" class="note"/>
  <text x="115" y="1605" class="region">Primeiro bioma para produção</text>
  <text x="115" y="1645" class="small">Refúgio Noroeste: cidade inicial, floresta sombria, costa recortada.</text>
  <text x="115" y="1680" class="small">A zona jogável começa verde/amarela e termina em bloqueios naturais.</text>
  <text x="115" y="1715" class="small">A Ruptura aparece ao longe, mas não domina o tutorial inicial.</text>

  <text x="1300" y="1865" text-anchor="middle" class="tiny">Conceito original derivado da lore de Elarion: Sete Reinos caídos, Ruptura do Limiar, Refúgios, Fronteiras, Ermos e Zonas de Colapso.</text>
</svg>
